<svg width="80" height="19" viewBox="0 0 80 19" fill="none" xmlns="http://www.w3.org/2000/svg">
<path d="M80 0V1.94269H76.7305V12H74.2695V1.94269H71V0H80Z" fill="#22409B"/>
<path d="M67.0967 12L64.3738 7.95989L61.9033 12H59.0541L63.0213 5.94842L59 0H61.9033L64.6262 4.02292L67.0787 0H69.9279L65.9787 6.03438L70 12H67.0967Z" fill="#22409B"/>
<path d="M47 12H44.6549L39.3451 3.77682V12H37V0H39.3451L44.6549 8.24034V0H47V12Z" fill="#22409B"/>
<path d="M34 0V12H32V0H34Z" fill="#22409B"/>
<path d="M15 0V12H13V0H15Z" fill="#22409B"/>
<path d="M4.38562 0C5.7037 0 6.86002 0.246418 7.85458 0.739255C8.86111 1.23209 9.63399 1.93696 10.1732 2.85387C10.7244 3.75931 11 4.81375 11 6.01719C11 7.22063 10.7244 8.27507 10.1732 9.18052C9.63399 10.0745 8.86111 10.7679 7.85458 11.2607C6.86002 11.7536 5.7037 12 4.38562 12H0V0H4.38562ZM4.29575 9.95415C5.61383 9.95415 6.63235 9.61032 7.35131 8.92264C8.07026 8.23496 8.42974 7.26648 8.42974 6.01719C8.42974 4.76791 8.07026 3.7937 7.35131 3.09456C6.63235 2.38395 5.61383 2.02865 4.29575 2.02865H2.51634V9.95415H4.29575Z" fill="#22409B"/>
<path d="M29 7.17188H26.627L26.6279 7.16992H22.501V5.36914H29V7.17188Z" fill="#809BD3"/>
<path d="M29 5.50098V7.87402L28.998 7.87305V12H27.1973V5.50098H29Z" fill="#809BD3"/>
<path d="M28.8877 6.77539L26.3672 9.2959V9.29297L23.6602 12H21.1133L27.6123 5.50098L28.8877 6.77539Z" fill="#809BD3"/>
<path d="M56.9995 10.043V12H48.981V10.043H56.9995Z" fill="#223F9B"/>
<path d="M56.9995 6.86719H51.7534V6.87012H48.981V4.96094H56.9995V6.86719Z" fill="#223F9B"/>
<path d="M56.9995 1.95703H48.981V0H56.9995V1.95703Z" fill="#223F9B"/>
<path d="M46.0469 18.968C45.8109 18.968 45.5986 18.9276 45.4098 18.8467C45.221 18.7624 45.0727 18.6444 44.9648 18.4927C44.857 18.341 44.803 18.164 44.803 17.9618H45.4199C45.4334 18.1135 45.4924 18.2382 45.5969 18.336C45.7048 18.4337 45.8548 18.4826 46.0469 18.4826C46.2458 18.4826 46.4009 18.4354 46.5121 18.341C46.6233 18.2433 46.679 18.1185 46.679 17.9668C46.679 17.8489 46.6436 17.7528 46.5728 17.6786C46.5054 17.6045 46.4194 17.5472 46.3149 17.5067C46.2138 17.4663 46.0722 17.4224 45.8902 17.3752C45.6609 17.3146 45.4738 17.2539 45.3289 17.1932C45.1873 17.1292 45.066 17.0314 44.9648 16.8999C44.8637 16.7685 44.8131 16.5932 44.8131 16.3741C44.8131 16.1718 44.8637 15.9949 44.9648 15.8432C45.066 15.6915 45.2075 15.5752 45.3896 15.4943C45.5716 15.4134 45.7823 15.3729 46.0216 15.3729C46.3621 15.3729 46.6402 15.4589 46.8559 15.6308C47.075 15.7993 47.1964 16.0319 47.22 16.3286H46.5829C46.5728 16.2005 46.5121 16.0909 46.4009 15.9999C46.2896 15.9089 46.143 15.8634 45.9609 15.8634C45.7958 15.8634 45.6609 15.9055 45.5564 15.9898C45.4519 16.0741 45.3997 16.1954 45.3997 16.3539C45.3997 16.4617 45.4317 16.5511 45.4958 16.6218C45.5632 16.6893 45.6475 16.7432 45.7486 16.7837C45.8497 16.8241 45.9879 16.8679 46.1632 16.9151C46.3958 16.9792 46.5846 17.0432 46.7295 17.1073C46.8778 17.1713 47.0026 17.2708 47.1037 17.4056C47.2082 17.5371 47.2604 17.714 47.2604 17.9365C47.2604 18.1152 47.2116 18.2837 47.1138 18.4421C47.0194 18.6006 46.8795 18.7287 46.6941 18.8264C46.5121 18.9208 46.2964 18.968 46.0469 18.968Z" fill="#22409B"/>
<path d="M47.8496 17.1679C47.8496 16.8241 47.9288 16.5157 48.0872 16.2426C48.249 15.9696 48.4665 15.7572 48.7395 15.6055C49.0159 15.4504 49.3176 15.3729 49.6446 15.3729C50.0188 15.3729 50.3508 15.4656 50.6407 15.651C50.934 15.8331 51.1464 16.0926 51.2778 16.4297H50.5851C50.4941 16.2443 50.3677 16.1061 50.2059 16.0151C50.0441 15.9241 49.857 15.8786 49.6446 15.8786C49.412 15.8786 49.2047 15.9308 49.0227 16.0353C48.8406 16.1398 48.6974 16.2898 48.5929 16.4853C48.4918 16.6808 48.4412 16.9084 48.4412 17.1679C48.4412 17.4275 48.4918 17.655 48.5929 17.8505C48.6974 18.0461 48.8406 18.1978 49.0227 18.3056C49.2047 18.4101 49.412 18.4624 49.6446 18.4624C49.857 18.4624 50.0441 18.4169 50.2059 18.3258C50.3677 18.2348 50.4941 18.0966 50.5851 17.9112H51.2778C51.1464 18.2483 50.934 18.5079 50.6407 18.6899C50.3508 18.8719 50.0188 18.963 49.6446 18.963C49.3143 18.963 49.0126 18.8871 48.7395 18.7354C48.4665 18.5804 48.249 18.3663 48.0872 18.0933C47.9288 17.8202 47.8496 17.5118 47.8496 17.1679Z" fill="#22409B"/>
<path d="M54.1723 18.2146H52.7009L52.4481 18.9326H51.8464L53.1054 15.4134H53.7728L55.0319 18.9326H54.4251L54.1723 18.2146ZM54.0105 17.7444L53.4391 16.1112L52.8627 17.7444H54.0105Z" fill="#22409B"/>
<path d="M58.5676 18.9326H57.9912L56.2569 16.3084V18.9326H55.6804V15.4134H56.2569L57.9912 18.0326V15.4134H58.5676V18.9326Z" fill="#22409B"/>
<path d="M60.5735 15.4184C60.9477 15.4184 61.2747 15.4909 61.5545 15.6359C61.8376 15.7774 62.055 15.9831 62.2067 16.2527C62.3618 16.519 62.4393 16.8308 62.4393 17.1882C62.4393 17.5455 62.3618 17.8556 62.2067 18.1185C62.055 18.3815 61.8376 18.5837 61.5545 18.7253C61.2747 18.8635 60.9477 18.9326 60.5735 18.9326H59.4257V15.4184H60.5735ZM60.5735 18.4624C60.9848 18.4624 61.3 18.3511 61.5191 18.1287C61.7382 17.9062 61.8477 17.5927 61.8477 17.1882C61.8477 16.7803 61.7382 16.4617 61.5191 16.2325C61.3 16.0033 60.9848 15.8887 60.5735 15.8887H60.0021V18.4624H60.5735Z" fill="#22409B"/>
<path d="M63.6882 15.4184V18.9326H63.1118V15.4184H63.6882Z" fill="#22409B"/>
<path d="M67.4333 18.9326H66.8569L65.1225 16.3084V18.9326H64.5461V15.4134H65.1225L66.8569 18.0326V15.4134H67.4333V18.9326Z" fill="#22409B"/>
<path d="M70.41 18.2146H68.9386L68.6858 18.9326H68.0841L69.3431 15.4134H70.0106L71.2696 18.9326H70.6628L70.41 18.2146ZM70.2482 17.7444L69.6768 16.1112L69.1004 17.7444H70.2482Z" fill="#22409B"/>
<path d="M74.9469 15.4184L73.6272 18.9326H72.9598L71.635 15.4184H72.2519L73.2935 18.341L74.3402 15.4184H74.9469Z" fill="#22409B"/>
<path d="M76.1066 15.4184V18.9326H75.5301V15.4184H76.1066Z" fill="#22409B"/>
<path d="M79.0831 18.2146H77.6117L77.3589 18.9326H76.7572L78.0162 15.4134H78.6837L79.9427 18.9326H79.3359L79.0831 18.2146ZM78.9213 17.7444L78.3499 16.1112L77.7735 17.7444H78.9213Z" fill="#22409B"/>
<path d="M23.1201 0C24.4726 0 25.6474 0.325791 26.6445 0.976562C27.6415 1.61607 28.3298 2.51882 28.708 3.68555H25.9395C25.6644 3.1921 25.2859 2.81659 24.8047 2.55859C24.3234 2.3006 23.7619 2.1709 23.1201 2.1709C22.4097 2.17093 21.7796 2.32849 21.2295 2.64258C20.6794 2.95674 20.2489 3.40586 19.9395 3.98926C19.7204 4.40249 19.5805 4.86099 19.5166 5.36426H17.0322C17.1133 4.46602 17.364 3.64836 17.791 2.91211C18.3296 1.99218 19.063 1.27931 19.9912 0.774414C20.931 0.258319 21.9741 3.40702e-05 23.1201 0Z" fill="#223F9B"/>
</svg>
